<svg width="207" height="15" viewBox="0 0 207 15" fill="none" xmlns="http://www.w3.org/2000/svg">
<path d="M20.4457 3.75314C19.714 3.68067 19.3207 3.39982 18.7993 3.03744C18.7902 3.03744 18.7719 3.01932 18.7627 3.01026C18.095 2.53916 17.2535 1.95935 15.7077 1.95935C14.1619 1.95935 13.2929 2.55728 12.6252 3.02838C12.0215 3.45418 11.5825 3.7622 10.5946 3.7622C9.60674 3.7622 9.16769 3.45418 8.564 3.02838C7.88714 2.55728 7.04563 1.95935 5.47237 1.95935C3.89912 1.95935 3.0942 2.5301 2.42648 3.0012C2.41733 3.01026 2.39904 3.01932 2.38074 3.02838C1.86852 3.39076 1.46606 3.67161 0.734314 3.74408L1.19166 5.50164C1.9234 5.38387 2.46307 5.1302 2.91126 4.85841C3.10334 4.73158 3.27713 4.6138 3.43263 4.49603C4.03632 4.07023 4.47537 3.7622 5.46323 3.7622C6.45108 3.7622 6.89013 4.07023 7.49382 4.49603C8.17069 4.97618 9.0122 5.56506 10.5855 5.56506C12.1587 5.56506 13.0002 4.97618 13.6771 4.49603C14.2808 4.07023 14.7198 3.7622 15.7077 3.7622C16.6955 3.7622 17.1346 4.07023 17.7383 4.49603C17.9029 4.6138 18.0767 4.74064 18.2688 4.85841C18.7078 5.13926 19.2475 5.38387 19.9792 5.50164L20.4366 3.74408L20.4457 3.75314Z" fill="white"/>
<path d="M21.1318 1.13507L20.4366 3.75328L19.9793 5.51084L17.8755 13.5014C17.7658 13.9 17.409 14.1718 16.9883 14.1718H4.17357C3.75281 14.1718 3.39609 13.8909 3.29547 13.5014L1.18255 5.51084L0.725213 3.75328L0.0300538 1.13507C-0.0980019 0.645854 0.194697 0.156637 0.688626 0.0298034C1.16426 -0.0970305 1.67648 0.192876 1.79539 0.673032L2.40823 3.0104L2.90216 4.86761L4.87787 12.378H16.2931L18.2688 4.86761L18.7628 3.01946L19.3756 0.682092C19.4945 0.201935 19.9976 -0.0879709 20.4824 0.0388629C20.9763 0.165697 21.269 0.654913 21.1409 1.13507H21.1318Z" fill="white"/>
<path d="M43.0476 13.9453V0.238159H46.0935V5.66484H51.7097V0.238159H54.7556V13.9453H51.7097V8.44612H46.0935V13.9453H43.0476Z" fill="white"/>
<path d="M110.478 2.95603V5.34775H114.137C115.683 5.34775 116.872 5.72825 117.722 6.48926C118.573 7.25026 118.994 8.28305 118.994 9.59669C118.994 10.9828 118.536 12.0518 117.631 12.8038C116.725 13.5648 115.454 13.9362 113.835 13.9362H107.432V0.238159H118.052V2.95603H110.478ZM113.817 7.85725H110.478V11.2274H113.835C115.244 11.2274 115.948 10.6476 115.948 9.48797C115.948 8.40083 115.234 7.86631 113.817 7.86631V7.85725Z" fill="white"/>
<path d="M138.001 13.9453V0.238159H141.047V13.9453H138.001Z" fill="white"/>
<path d="M204.901 12.1153C203.501 13.4923 201.745 14.1809 199.632 14.1809C197.519 14.1809 195.772 13.4923 194.382 12.1244C192.992 10.7564 192.296 9.08034 192.296 7.0963C192.296 5.11225 193.001 3.45435 194.4 2.0773C195.8 0.700245 197.556 0.0117188 199.669 0.0117188C201.782 0.0117188 203.529 0.700245 204.919 2.06824C206.309 3.43623 207.004 5.11225 207.004 7.0963C207.004 9.08034 206.3 10.7382 204.901 12.1153ZM196.669 10.1403C197.455 10.9738 198.461 11.3905 199.669 11.3905C200.876 11.3905 201.873 10.9738 202.651 10.1494C203.428 9.31589 203.821 8.30122 203.821 7.08724C203.821 5.87326 203.428 4.86764 202.632 4.03416C201.837 3.20068 200.84 2.78394 199.632 2.78394C198.425 2.78394 197.428 3.20068 196.65 4.0251C195.873 4.85858 195.479 5.87326 195.479 7.08724C195.479 8.30122 195.873 9.30683 196.669 10.1403Z" fill="white"/>
<path d="M78.1257 10.8741L76.8634 13.9453H73.7626L79.6898 0.13855H82.4979L88.425 13.9453H85.2419L83.9796 10.8741L82.8912 8.21062L81.0527 3.76237L79.2141 8.21062L78.1257 10.8741Z" fill="white"/>
<path d="M164.417 10.8741L163.155 13.9453H160.054L165.981 0.13855H168.789L174.716 13.9453H171.533L170.271 10.8741L169.182 8.21062L167.344 3.76237L165.505 8.21062L164.417 10.8741Z" fill="white"/>
</svg>
