<svg width="203" height="136" viewBox="0 0 203 136" fill="none" xmlns="http://www.w3.org/2000/svg">
    <path
        d="M195.669 35.9181C188.666 35.2245 184.902 32.5368 179.912 29.0687C179.825 29.0687 179.65 28.8953 179.562 28.8086C173.172 24.3001 165.119 18.7512 150.325 18.7512C135.531 18.7512 127.215 24.4735 120.825 28.982C115.048 33.057 110.846 36.0048 101.392 36.0048C91.938 36.0048 87.7363 33.057 81.9588 28.982C75.4811 24.4735 67.4277 18.7512 52.3714 18.7512C37.3151 18.7512 29.6118 24.2134 23.2216 28.7219C23.1341 28.8086 22.959 28.8953 22.784 28.982C17.8819 32.4501 14.0303 35.1378 7.02734 35.8314L11.4042 52.6515C18.4071 51.5244 23.5718 49.0968 27.8611 46.4957C29.6994 45.2819 31.3626 44.1548 32.8507 43.0277C38.6281 38.9527 42.8299 36.0048 52.2839 36.0048C61.7378 36.0048 65.9396 38.9527 71.717 43.0277C78.1947 47.6229 86.2481 53.2585 101.304 53.2585C116.361 53.2585 124.414 47.6229 130.892 43.0277C136.669 38.9527 140.871 36.0048 150.325 36.0048C159.779 36.0048 163.981 38.9527 169.758 43.0277C171.334 44.1548 172.997 45.3686 174.835 46.4957C179.037 49.1835 184.202 51.5244 191.205 52.6515L195.582 35.8314L195.669 35.9181Z"
        fill="#C9C9C9" />
    <path
        d="M202.234 10.8626L195.582 35.9193L191.205 52.7394L171.071 129.21C170.021 133.025 166.607 135.626 162.58 135.626H39.9413C35.9146 135.626 32.5007 132.938 31.5378 129.21L11.3168 52.7394L6.93993 35.9193L0.287131 10.8626C-0.938383 6.18069 1.86279 1.4988 6.58978 0.284979C11.1417 -0.928843 16.0438 1.84561 17.1817 6.44079L23.0467 28.8098L27.7737 46.5836L46.6816 118.459H155.928L174.835 46.5836L179.562 28.8965L185.427 6.52749C186.565 1.93231 191.38 -0.842141 196.019 0.371681C200.746 1.5855 203.548 6.26739 202.322 10.8626H202.234Z"
        fill="#C9C9C9" />
</svg>