<svg width="29" height="29" viewBox="0 0 29 29" fill="none" xmlns="http://www.w3.org/2000/svg">
    <path
        d="M2.11411 11.8885C5.33025 18.8932 11.053 24.4624 18.1679 27.4815L19.3084 27.9897C21.9177 29.1522 24.9851 28.269 26.5766 25.8968L28.067 23.6753C28.5515 22.9531 28.404 21.9803 27.7271 21.4342L22.6726 17.3565C21.9301 16.7575 20.8384 16.897 20.2705 17.6634L18.7068 19.7734C14.6945 17.7942 11.437 14.5367 9.45783 10.5244L11.5678 8.96073C12.3342 8.39278 12.4737 7.30108 11.8747 6.55866L7.79686 1.50396C7.25086 0.827167 6.27833 0.679539 5.55608 1.16382L3.31928 2.66364C0.932274 4.26417 0.0539258 7.35688 1.24333 9.97314L2.1128 11.8857L2.11411 11.8885Z"
        fill="#ffffff" />
</svg>